<svg width="16" height="15" fill="none" xmlns="http://www.w3.org/2000/svg"><g clip-path="url(#clip0)" fill="#fff"><path d="M5.332 14.934a1.067 1.067 0 100-2.134 1.067 1.067 0 000 2.134zm7.469 0a1.067 1.067 0 100-2.134 1.067 1.067 0 000 2.134zm2.132-12.267H3.104L2.667.427A.533.533 0 002.133 0H0v1.067h1.696l2.037 10.24a.533.533 0 00.534.426h9.6v-1.066H4.704l-.437-2.134h9.6a.533.533 0 00.533-.416l1.067-4.8a.535.535 0 00-.534-.65zm-1.493 4.8H4.064l-.747-3.734h10.95l-.827 3.734z"/></g><defs><clipPath id="clip0"><path fill="#fff" d="M0 0h16v14.933H0z"/></clipPath></defs></svg>