<svg width="86" height="20" fill="none" xmlns="http://www.w3.org/2000/svg"><path d="M13.672 7.792c0 2.688-1.064 4.424-3.192 5.208l4.248 6H10.12L6.4 13.648H3.808V19H.064V2.224h6.36c2.608 0 4.464.44 5.568 1.32 1.12.88 1.68 2.296 1.68 4.248zm-7.128 2.616c1.28 0 2.152-.208 2.616-.624.464-.416.696-1.072.696-1.968 0-.912-.24-1.536-.72-1.872-.48-.336-1.32-.504-2.52-.504H3.808v4.968h2.736zm21.881 6.72c-1.456 1.376-3.168 2.064-5.136 2.064-1.952 0-3.568-.6-4.848-1.8-1.28-1.216-1.92-2.84-1.92-4.872s.648-3.648 1.944-4.848c1.313-1.2 2.857-1.8 4.633-1.8 1.776 0 3.28.536 4.512 1.608 1.248 1.072 1.872 2.544 1.872 4.416v1.92h-9.409c.113.704.48 1.28 1.104 1.728a3.533 3.533 0 002.113.672c1.264 0 2.303-.424 3.12-1.272l2.015 2.184zm-2.591-5.88c-.08-.768-.369-1.36-.864-1.776-.496-.416-1.104-.624-1.825-.624-.703 0-1.351.216-1.944.648a2.478 2.478 0 00-1.032 1.752h5.665zM35.776 19h-3.6V1.192h3.6V19zm6.988 0L37.653 6.064h3.744l3.216 8.136 3.216-8.136h3.744L46.461 19h-3.696zm14.283 0h-3.6V6.088h3.6V19zM53.736 4.456c-.4-.416-.6-.92-.6-1.512s.2-1.088.6-1.488a2.06 2.06 0 011.512-.624c.592 0 1.088.208 1.488.624.416.4.624.896.624 1.488a2.06 2.06 0 01-.624 1.512c-.4.4-.896.6-1.488.6s-1.096-.2-1.512-.6zm16.54 10.536c0 1.264-.472 2.28-1.416 3.048-.928.768-2.112 1.152-3.552 1.152-.96 0-1.96-.168-3-.504a9.044 9.044 0 01-2.808-1.536l1.584-2.256c1.344 1.04 2.776 1.56 4.296 1.56.464 0 .832-.088 1.104-.264.272-.192.408-.44.408-.744s-.192-.584-.576-.84c-.368-.256-.912-.496-1.632-.72a21.218 21.218 0 01-1.632-.576 9.599 9.599 0 01-1.272-.696c-.976-.608-1.464-1.504-1.464-2.688 0-1.2.48-2.176 1.44-2.928.96-.752 2.2-1.128 3.72-1.128s3.04.512 4.56 1.536l-1.344 2.4c-1.12-.768-2.24-1.152-3.36-1.152-1.104 0-1.656.304-1.656.912 0 .336.176.6.528.792.352.192.936.416 1.752.672.816.256 1.392.456 1.728.6.352.128.768.336 1.248.624.896.544 1.344 1.456 1.344 2.736zm14.032 2.136c-1.456 1.376-3.168 2.064-5.136 2.064-1.952 0-3.568-.6-4.848-1.8-1.28-1.216-1.92-2.84-1.92-4.872s.648-3.648 1.944-4.848c1.312-1.2 2.856-1.8 4.632-1.8 1.776 0 3.28.536 4.512 1.608 1.248 1.072 1.872 2.544 1.872 4.416v1.92h-9.408c.112.704.48 1.28 1.104 1.728a3.533 3.533 0 002.112.672c1.264 0 2.304-.424 3.12-1.272l2.016 2.184zm-2.592-5.88c-.08-.768-.368-1.36-.864-1.776-.496-.416-1.104-.624-1.824-.624-.704 0-1.352.216-1.944.648a2.478 2.478 0 00-1.032 1.752h5.664z" fill="#fff"/></svg>