<svg width="48" height="48" fill="none" xmlns="http://www.w3.org/2000/svg"><path d="M24 30a6 6 0 100-12 6 6 0 000 12z" stroke="#fff" stroke-width="2" stroke-linecap="round" stroke-linejoin="round"/><path d="M38.8 30a3.3 3.3 0 00.66 3.64l.12.12a4 4 0 01-1.298 6.528 4 4 0 01-4.362-.868l-.12-.12a3.3 3.3 0 00-3.64-.66 3.3 3.3 0 00-2 3.02V42a4 4 0 11-8 0v-.18A3.3 3.3 0 0018 38.8a3.3 3.3 0 00-3.64.66l-.12.12a4 4 0 01-6.528-4.362 4 4 0 01.868-1.298l.12-.12a3.3 3.3 0 00.66-3.64 3.3 3.3 0 00-3.02-2H6a4 4 0 110-8h.18A3.3 3.3 0 009.2 18a3.3 3.3 0 00-.66-3.64l-.12-.12a4 4 0 011.298-6.528 4 4 0 014.362.868l.12.12a3.3 3.3 0 003.64.66H18a3.3 3.3 0 002-3.02V6a4 4 0 118 0v.18a3.3 3.3 0 002 3.02 3.3 3.3 0 003.64-.66l.12-.12a4 4 0 016.528 1.298 4 4 0 01-.868 4.362l-.12.12a3.3 3.3 0 00-.66 3.64V18a3.3 3.3 0 003.02 2H42a4 4 0 110 8h-.18a3.3 3.3 0 00-3.02 2v0z" stroke="#fff" stroke-width="2" stroke-linecap="round" stroke-linejoin="round"/></svg>